<svg xmlns="http://www.w3.org/2000/svg" viewBox="0 0 19.84 15.84"><defs><style>.cls-1{fill:#fff;}</style></defs><title>Asset 2</title><g id="Layer_2" data-name="Layer 2"><g id="Layer_1-2" data-name="Layer 1"><g id="Landing-page_final-idaas" data-name="Landing-page final-idaas"><g id="twitter"><g id="_1485505916_038_003_twitter_social_network_android_material" data-name="1485505916_038_003_twitter_social_network_android_material"><g id="Layer_21" data-name="Layer 21"><circle id="Oval" class="cls-1" cx="13.78" cy="4" r="4"/><path id="Shape" class="cls-1" d="M10.37,4.83c-.21,0-.58.43-.58.67A8.5,8.5,0,0,1,1.28,14,8.65,8.65,0,0,1,0,13.89,11.42,11.42,0,0,0,17.78,4.42C17.78,3.68,13.1,4.83,10.37,4.83Z"/><path id="Shape-2" data-name="Shape" class="cls-1" d="M10.37,4.83a11.38,11.38,0,0,1-8.69-4,3.94,3.94,0,0,0-.54,2,4,4,0,0,0,4,4c2.12,0,5.9,0,6.15-2Q10.82,4.83,10.37,4.83Z"/><path id="Shape-3" data-name="Shape" class="cls-1" d="M3,6a3.93,3.93,0,0,1-1.89-.5s0,0,0,.06a4,4,0,0,0,4,4c2.2,0,5.27-1.6,5.27-3.79C10.39,4.28,5.21,6,3,6Z"/><path id="Shape-4" data-name="Shape" class="cls-1" d="M5.51,9a3.91,3.91,0,0,1-3,.52,4,4,0,0,0,3.8,2.86A5.26,5.26,0,0,0,11,7.71C11,5.82,6.61,8.29,5.51,9Zm9.88-7.62c-1.32,0-1.64,1.66.07,1.66A4,4,0,0,0,19.23.33,7.5,7.5,0,0,1,15.39,1.38Z"/><path id="Shape-5" data-name="Shape" class="cls-1" d="M16.61,2.54a7.52,7.52,0,0,1-2.94-.59C11,.8,9.32,5.28,13.49,5.28A7.53,7.53,0,0,0,19.84,1.8a7.5,7.5,0,0,1-3.23.73Z"/></g></g></g></g></g></g></svg>