<svg xmlns="http://www.w3.org/2000/svg" viewBox="0 0 20 14"><defs><style>.cls-1{fill:#fff;}</style></defs><title>Asset 3</title><g id="Layer_2" data-name="Layer 2"><g id="Layer_1-2" data-name="Layer 1"><g id="Landing-page_final-idaas" data-name="Landing-page final-idaas"><g id="youtube"><g id="_1485505919_038_008_youtube_video_social_network_android_material" data-name="1485505919_038_008_youtube_video_social_network_android_material"><g id="Layer_21" data-name="Layer 21"><path id="Shape" class="cls-1" d="M19.81,2.81A2.8,2.8,0,0,0,17.26.27Q13.89,0,10.5,0C7,0,4.44.14,2.76.27A2.8,2.8,0,0,0,.19,2.82Q0,4.92,0,7c0,1.67.09,3.07.19,4.15a2.8,2.8,0,0,0,2.56,2.54C4.44,13.86,7,14,10.5,14c2.87,0,5.19-.14,6.76-.27a2.8,2.8,0,0,0,2.55-2.54c.1-1.08.19-2.5.19-4.19S19.91,3.89,19.81,2.81Zm-12,7.13V4.06L13.57,7Z"/></g></g></g></g></g></g></svg>